<svg height="394.92pt" version="1.1" viewBox="0 0 201.742929 394.92" width="201.742929pt"
    xmlns="http://www.w3.org/2000/svg" xmlns:xlink="http://www.w3.org/1999/xlink">
    <metadata>
        <rdf:RDF xmlns:cc="http://creativecommons.org/ns#" xmlns:dc="http://purl.org/dc/elements/1.1/"
            xmlns:rdf="http://www.w3.org/1999/02/22-rdf-syntax-ns#">
            <cc:Work>
                <dc:type rdf:resource="http://purl.org/dc/dcmitype/StillImage" />
                <dc:date>2021-04-07T12:48:04.906172</dc:date>
                <dc:format>image/svg+xml</dc:format>
                <dc:creator>
                    <cc:Agent>
                        <dc:title>Matplotlib v3.4.1, https://matplotlib.org/</dc:title>
                    </cc:Agent>
                </dc:creator>
            </cc:Work>
        </rdf:RDF>
    </metadata>
    <defs>
        <style type="text/css">
            * {
                stroke-linecap: butt;
                stroke-linejoin: round;
            }
        </style>
    </defs>
    <g id="figure_1">
        <g id="patch_1">
            <path d="M 0 394.92 
L 201.742929 394.92 
L 201.742929 0 
L 0 0 
z
" style="fill:none;" />
        </g>
        <g id="axes_1">
            <g id="patch_2">
                <path d="M 194.542929 7.2 
L 194.542929 387.72 
L 7.2 387.72 
L 7.2 7.2 
L 194.542929 7.2 
" style="fill:none;" />
            </g>
            <g id="PathCollection_1">
                <defs>
                    <path d="M 99.273636 -75.847251 
L 101.640073 -75.750904 
L 102.094231 -75.734312 
L 102.439565 -72.627024 
L 102.611952 -71.046764 
L 98.995414 -62.839242 
L 92.807497 -64.835893 
L 92.00022 -66.379076 
L 91.436513 -67.310085 
L 90.961959 -68.229486 
L 93.76685 -75.266465 
L 93.920886 -75.289171 
L 96.870529 -75.724576 
L 97.999236 -75.896626 
L 98.030954 -75.89814 
z
" id="m63340bb010" style="stroke:#000000;stroke-opacity:0.5;stroke-width:0.5;" />
                </defs>
                <g clip-path="url(#pc284ee2ed3)">
                    <use style="fill:#0000ff;fill-opacity:0.5;stroke:#000000;stroke-opacity:0.5;stroke-width:0.5;" x="0"
                        xlink:href="#m63340bb010" y="394.92" />
                </g>
            </g>
            <g id="PathCollection_2">
                <defs>
                    <path d="M 61.565444 -19.103665 
L 76.506513 -35.936479 
L 82.54713 -42.843636 
L 84.69618 -45.319749 
L 109.205593 -57.11956 
L 108.963001 -63.079469 
L 108.502477 -64.868397 
L 105.682264 -75.573463 
L 107.255211 -75.183839 
L 108.755088 -74.839523 
L 108.912534 -74.800857 
L 110.143319 -74.514315 
L 114.131446 -73.576547 
L 114.790953 -73.418527 
L 118.113949 -72.650722 
L 118.920158 -72.464468 
L 131.507267 -69.47393 
L 137.648546 -65.953485 
L 138.488962 -65.592387 
L 140.04617 -63.708974 
L 136.042508 -57.725805 
L 134.617541 -53.790194 
L 130.630368 -47.608201 
L 129.475576 -46.308694 
L 130.169911 -43.523131 
L 131.757616 -37.667718 
L 132.351769 -33.222485 
L 134.49908 -25.183159 
L 137.706999 -21.532351 
L 134.025919 -19.294852 
L 131.849278 -12.687666 
L 129.458401 -12.389241 
L 123.3471 -11.649252 
L 120.27071 -9.767767 
L 116.987646 -11.023404 
L 116.642563 -11.135179 
L 113.878746 -14.896469 
L 109.485667 -18.413616 
L 95.386573 -22.118405 
L 87.72875 -19.404222 
L 85.324812 -18.613742 
L 83.98396 -18.542339 
L 82.598123 -18.571973 
L 79.589718 -18.402018 
L 77.914346 -18.419378 
L 74.913896 -18.252267 
L 75.717164 -15.014534 
L 74.814716 -11.823584 
L 72.23231 -9.631283 
L 71.499865 -9.565472 
L 68.856684 -9.336336 
L 66.058662 -12.512288 
L 64.644142 -14.674618 
L 62.822581 -17.298437 
z
" id="m68e6832a36" style="stroke:#000000;stroke-opacity:0.5;stroke-width:0.5;" />
                </defs>
                <g clip-path="url(#pc284ee2ed3)">
                    <use style="fill:#0000ff;fill-opacity:0.5;stroke:#000000;stroke-opacity:0.5;stroke-width:0.5;" x="0"
                        xlink:href="#m68e6832a36" y="394.92" />
                </g>
            </g>
            <g id="PathCollection_3">
                <defs>
                    <path d="M 32.76282 -38.170358 
L 35.261426 -45.984139 
L 36.117512 -48.666748 
L 47.087021 -53.974107 
L 49.84807 -55.297012 
L 52.635591 -56.642278 
L 53.191659 -56.908944 
L 61.351601 -60.810312 
L 62.210342 -61.220927 
L 63.211589 -61.698049 
L 63.966126 -62.052618 
L 64.105082 -62.118588 
L 64.720113 -62.415498 
L 65.73157 -62.895002 
L 67.193525 -63.60663 
L 76.547968 -68.019175 
L 76.929815 -68.196817 
L 77.437446 -68.433785 
L 79.069059 -69.20495 
L 81.146645 -70.175344 
L 81.593579 -70.396218 
L 85.570336 -72.263745 
L 88.52184 -73.644221 
L 88.5646 -73.669669 
L 91.159747 -74.876427 
L 93.24986 -75.180328 
L 93.76685 -75.266465 
L 93.920886 -75.289171 
L 96.870529 -75.724576 
L 97.999236 -75.896626 
L 98.030954 -75.89814 
L 99.273636 -75.847251 
L 101.640073 -75.750904 
L 102.094231 -75.734312 
L 102.692408 -75.701563 
L 105.682264 -75.573463 
L 108.502477 -64.868397 
L 108.963001 -63.079469 
L 109.205593 -57.11956 
L 84.69618 -45.319749 
L 82.54713 -42.843636 
L 76.506513 -35.936479 
L 61.565444 -19.103665 
L 59.725765 -18.69662 
L 58.783415 -18.081108 
L 55.223737 -15.754 
L 52.635039 -14.296713 
L 49.825501 -13.573473 
L 48.724697 -13.943767 
L 46.833013 -14.588515 
L 45.978446 -16.161003 
L 45.772453 -16.540766 
L 45.267536 -17.611128 
L 45.259046 -17.642217 
L 44.189719 -21.139242 
L 43.295092 -23.814804 
L 30.845463 -32.140452 
z
" id="m7fb25dadb4" style="stroke:#000000;stroke-opacity:0.5;stroke-width:0.5;" />
                </defs>
                <g clip-path="url(#pc284ee2ed3)">
                    <use style="fill:#0000ff;fill-opacity:0.5;stroke:#000000;stroke-opacity:0.5;stroke-width:0.5;" x="0"
                        xlink:href="#m7fb25dadb4" y="394.92" />
                </g>
            </g>
            <g id="PathCollection_4">
                <defs>
                    <path d="M 112.617801 -81.296446 
L 107.987954 -77.472695 
L 105.682264 -75.573463 
L 102.692408 -75.701563 
L 102.094231 -75.734312 
L 101.640073 -75.750904 
L 99.273636 -75.847251 
L 98.030954 -75.89814 
L 97.999236 -75.896626 
L 96.870529 -75.724576 
L 93.920886 -75.289171 
L 93.76685 -75.266465 
L 93.24986 -75.180328 
L 91.159747 -74.876427 
L 88.5646 -73.669669 
L 88.52184 -73.644221 
L 85.570336 -72.263745 
L 81.593579 -70.396218 
L 81.146645 -70.175344 
L 79.069059 -69.20495 
L 78.499239 -70.528853 
L 78.495249 -70.528724 
L 77.561672 -72.679443 
L 76.477007 -75.183319 
L 76.600873 -75.922835 
L 77.033252 -78.445219 
L 77.116928 -78.930811 
L 77.310376 -80.069485 
L 77.569947 -81.598946 
L 77.637962 -81.941871 
L 77.832441 -83.137156 
L 78.359363 -86.208095 
L 78.619586 -87.748593 
L 79.096873 -90.528489 
L 83.235116 -96.583583 
L 85.011249 -99.183111 
L 87.472504 -100.634818 
L 89.077651 -101.577677 
L 98.907581 -102.328233 
L 98.988421 -102.268424 
L 101.073106 -100.801887 
L 104.095397 -98.615845 
L 108.570096 -91.982509 
L 114.157107 -89.034237 
L 127.273455 -89.77126 
L 129.889715 -89.912018 
L 127.927895 -86.955724 
L 127.688639 -86.652591 
L 125.417505 -85.833589 
L 124.410686 -85.581428 
L 120.558816 -84.687883 
L 119.049288 -84.296101 
L 117.934476 -83.970869 
L 117.344354 -83.85417 
L 116.565889 -83.646653 
L 115.003902 -83.240687 
L 112.833055 -81.475742 
z
" id="m11935c3b69" style="stroke:#000000;stroke-opacity:0.5;stroke-width:0.51;" />
                </defs>
                <g clip-path="url(#pc284ee2ed3)">
                    <use style="fill:#ff0000;fill-opacity:0.5;stroke:#000000;stroke-opacity:0.5;stroke-width:0.51;"
                        x="0" xlink:href="#m11935c3b69" y="394.92" />
                </g>
            </g>
            <g id="PathCollection_5">
                <defs>
                    <path d="M 77.033252 -78.445219 
L 76.600873 -75.922835 
L 76.477007 -75.183319 
L 77.561672 -72.679443 
L 78.495249 -70.528724 
L 78.499239 -70.528853 
L 79.069059 -69.20495 
L 77.437446 -68.433785 
L 76.929815 -68.196817 
L 76.547968 -68.019175 
L 67.193525 -63.60663 
L 65.73157 -62.895002 
L 64.720113 -62.415498 
L 64.105082 -62.118588 
L 63.966126 -62.052618 
L 63.211589 -61.698049 
L 62.210342 -61.220927 
L 61.351601 -60.810312 
L 53.191659 -56.908944 
L 52.635591 -56.642278 
L 49.84807 -55.297012 
L 47.087021 -53.974107 
L 36.117512 -48.666748 
L 35.368914 -49.491053 
L 34.891904 -50.017372 
L 33.471216 -51.58202 
L 33.326103 -51.739433 
L 33.116575 -51.967659 
L 32.915144 -52.188089 
L 32.363651 -52.802308 
z
" id="me87634d879" style="stroke:#000000;stroke-opacity:0.5;stroke-width:0.51;" />
                </defs>
                <g clip-path="url(#pc284ee2ed3)">
                    <use style="fill:#ff0000;fill-opacity:0.5;stroke:#000000;stroke-opacity:0.5;stroke-width:0.51;"
                        x="0" xlink:href="#me87634d879" y="394.92" />
                </g>
            </g>
            <g id="PathCollection_6">
                <defs>
                    <path d="M 77.569947 -81.598946 
L 77.310376 -80.069485 
L 77.116928 -78.930811 
L 77.033252 -78.445219 
L 32.363651 -52.802308 
L 32.154434 -53.030753 
L 31.571494 -53.676994 
L 31.414766 -53.842577 
L 29.509474 -55.941835 
L 27.889594 -57.705003 
L 27.06334 -58.607448 
L 25.605121 -60.192564 
L 23.817017 -62.137555 
L 23.713864 -62.248846 
L 23.527461 -62.455436 
L 22.049847 -64.046475 
L 21.931238 -64.181782 
L 21.860067 -64.261347 
L 21.694008 -64.444498 
L 22.632882 -64.69463 
L 35.431297 -68.119215 
L 59.042538 -74.307753 
z
" id="mcc025c344f" style="stroke:#000000;stroke-opacity:0.5;stroke-width:0.51;" />
                </defs>
                <g clip-path="url(#pc284ee2ed3)">
                    <use style="fill:#ff0000;fill-opacity:0.5;stroke:#000000;stroke-opacity:0.5;stroke-width:0.51;"
                        x="0" xlink:href="#mcc025c344f" y="394.92" />
                </g>
            </g>
            <g id="PathCollection_7">
                <defs>
                    <path d="M 62.037388 -216.182109 
L 63.766365 -219.200508 
L 66.189539 -223.32371 
L 67.632155 -225.999492 
L 68.541348 -227.481801 
L 70.416687 -230.869985 
L 71.067197 -231.999107 
L 72.589388 -234.62616 
L 73.297355 -235.885426 
L 73.997814 -237.112128 
L 74.08336 -237.257145 
L 74.08684 -237.257261 
L 75.313063 -239.398382 
L 75.420749 -241.294006 
L 75.053356 -246.512262 
L 74.951329 -247.071014 
L 74.103365 -251.755237 
L 72.270228 -256.22279 
L 70.708563 -258.743982 
L 70.446439 -259.503396 
L 69.38544 -261.479612 
L 69.256052 -261.712104 
L 68.561302 -263.025965 
L 68.953893 -265.023445 
L 69.488805 -267.746424 
L 69.781613 -269.236941 
L 71.175003 -270.991803 
L 71.346573 -271.005766 
L 81.946446 -271.683832 
L 86.147772 -277.572838 
L 87.397766 -278.761685 
L 92.659476 -283.74763 
L 98.816453 -283.854352 
L 100.028245 -283.873603 
L 104.17159 -281.04748 
L 106.320894 -275.27009 
L 118.405234 -280.331516 
L 121.260923 -281.504823 
L 127.915016 -284.262795 
L 132.539045 -286.465124 
L 132.598007 -285.120345 
L 133.065495 -283.180901 
L 137.382999 -276.480554 
L 140.745591 -270.231885 
L 144.772494 -263.268084 
L 146.27284 -259.007496 
L 149.955991 -248.585535 
L 145.852052 -245.662502 
L 144.998302 -229.673361 
L 141.081326 -226.352445 
L 124.927995 -212.512351 
L 109.961281 -201.970242 
L 93.553847 -189.551934 
L 73.330269 -203.674555 
L 64.939626 -210.171569 
L 60.65265 -213.558052 
z
" id="me937c4be87" style="stroke:#000000;stroke-opacity:0.5;stroke-width:0.51;" />
                </defs>
                <g clip-path="url(#pc284ee2ed3)">
                    <use style="fill:#ff0000;fill-opacity:0.5;stroke:#000000;stroke-opacity:0.5;stroke-width:0.51;"
                        x="0" xlink:href="#me937c4be87" y="394.92" />
                </g>
            </g>
            <g id="PathCollection_8">
                <defs>
                    <path d="M 37.058528 -347.130138 
L 36.395187 -352.597517 
L 39.335082 -355.29341 
L 39.85064 -355.567985 
L 45.073348 -351.037925 
L 46.666971 -347.709939 
L 51.699377 -337.286707 
L 58.397522 -336.048227 
L 62.563786 -335.387439 
L 65.727749 -338.212473 
L 68.509017 -340.811819 
L 70.254744 -339.609604 
L 77.277192 -334.855119 
L 80.615883 -332.622395 
L 83.486617 -340.42864 
L 86.677245 -344.080203 
L 88.119208 -346.868991 
L 89.298091 -357.401016 
L 90.289713 -365.88877 
L 90.553161 -368.152361 
L 91.243002 -369.058517 
L 92.904522 -371.200116 
L 93.76485 -372.323429 
L 95.731981 -376.189823 
L 96.485901 -376.519967 
L 99.60462 -377.880059 
L 102.320779 -376.872654 
L 103.499933 -377.39693 
L 107.985924 -382.356883 
L 112.506835 -383.651014 
L 112.601682 -383.408188 
L 114.792279 -377.761929 
L 116.658045 -376.957841 
L 117.183505 -376.376995 
L 119.096989 -374.282372 
L 122.128309 -373.079949 
L 122.582287 -372.923446 
L 123.204663 -372.710685 
L 125.995782 -371.76621 
L 126.687012 -369.989387 
L 127.508688 -367.889201 
L 127.869756 -367.12377 
L 128.831024 -365.102088 
L 127.076325 -361.844098 
L 126.536384 -360.840664 
L 126.347215 -360.372967 
L 124.881913 -357.7881 
L 124.010161 -356.185897 
L 124.112261 -355.004374 
L 124.131917 -354.776916 
L 124.250572 -353.403817 
L 124.327617 -352.512233 
L 125.147272 -351.764687 
L 125.533121 -351.094374 
L 121.607864 -347.436348 
L 120.977641 -346.848393 
L 120.974497 -346.848133 
L 120.11107 -346.320652 
L 120.775624 -345.427477 
L 122.963129 -345.636314 
L 124.589579 -345.231017 
L 124.317343 -343.567539 
L 123.879443 -340.849211 
L 122.250281 -336.933444 
L 121.81459 -335.875145 
L 121.653335 -335.468826 
L 121.279576 -334.573744 
L 121.652394 -333.461165 
L 124.603383 -324.086551 
L 132.647514 -321.06088 
L 137.466956 -312.969465 
L 142.028126 -309.386789 
L 141.478199 -304.638689 
L 140.902561 -303.815216 
L 136.156579 -294.267932 
L 132.539045 -286.465124 
L 127.915016 -284.262795 
L 121.260923 -281.504823 
L 118.405234 -280.331516 
L 106.320894 -275.27009 
L 104.17159 -281.04748 
L 100.028245 -283.873603 
L 98.816453 -283.854352 
L 92.659476 -283.74763 
L 87.397766 -278.761685 
L 86.147772 -277.572838 
L 81.946446 -271.683832 
L 71.346573 -271.005766 
L 71.175003 -270.991803 
L 69.781613 -269.236941 
L 70.106877 -270.958351 
L 71.057978 -275.832623 
L 72.126825 -277.948899 
L 71.613874 -278.986471 
L 70.184558 -281.8682 
L 68.667064 -284.931601 
L 67.273771 -290.421667 
L 68.984193 -294.089936 
L 69.115878 -296.903114 
L 65.457349 -305.055314 
L 66.258935 -311.468003 
L 66.786033 -313.683481 
L 65.1513 -315.373304 
L 63.267633 -318.65187 
L 63.058928 -318.992593 
L 60.471944 -322.506243 
L 53.335031 -328.178809 
L 40.53399 -338.322134 
L 38.081552 -340.296958 
L 31.021938 -347.457932 
z
" id="m6180cecbe4" style="stroke:#000000;stroke-opacity:0.5;stroke-width:0.51;" />
                </defs>
                <g clip-path="url(#pc284ee2ed3)">
                    <use style="fill:#ff0000;fill-opacity:0.5;stroke:#000000;stroke-opacity:0.5;stroke-width:0.51;"
                        x="0" xlink:href="#m6180cecbe4" y="394.92" />
                </g>
            </g>
            <g id="PathCollection_9">
                <defs>
                    <path d="M 85.608102 -123.897758 
L 88.422537 -124.197113 
L 98.042348 -125.183448 
L 111.758263 -123.906009 
L 101.073106 -100.801887 
L 98.988421 -102.268424 
L 98.907581 -102.328233 
L 89.077651 -101.577677 
L 87.472504 -100.634818 
L 87.010251 -104.484768 
L 85.905173 -113.671996 
z
" id="mc9b10cbcc3" style="stroke:#000000;stroke-opacity:0.5;stroke-width:0.51;" />
                </defs>
                <g clip-path="url(#pc284ee2ed3)">
                    <use style="fill:#ff0000;fill-opacity:0.5;stroke:#000000;stroke-opacity:0.5;stroke-width:0.51;"
                        x="0" xlink:href="#mc9b10cbcc3" y="394.92" />
                </g>
            </g>
            <g id="PathCollection_10">
                <defs>
                    <path d="M 101.073106 -100.801887 
L 111.758263 -123.906009 
L 115.927506 -134.590551 
L 123.585881 -132.083981 
L 126.95453 -130.972021 
L 131.50346 -129.467944 
L 141.243068 -126.555996 
L 152.664216 -123.529944 
L 151.035428 -121.336347 
L 148.499677 -117.940661 
L 144.007125 -112.421086 
L 142.881583 -110.995226 
L 138.701648 -105.711318 
L 136.551679 -102.42265 
L 130.486159 -90.918445 
L 130.163955 -90.313939 
L 129.889715 -89.912018 
L 127.273455 -89.77126 
L 114.157107 -89.034237 
L 108.570096 -91.982509 
L 104.095397 -98.615845 
z
" id="m4efbcc54e3" style="stroke:#000000;stroke-opacity:0.5;stroke-width:0.51;" />
                </defs>
                <g clip-path="url(#pc284ee2ed3)">
                    <use style="fill:#ff0000;fill-opacity:0.5;stroke:#000000;stroke-opacity:0.5;stroke-width:0.51;"
                        x="0" xlink:href="#m4efbcc54e3" y="394.92" />
                </g>
            </g>
            <g id="PathCollection_11">
                <defs>
                    <path d="M 88.422537 -124.197113 
L 85.608102 -123.897758 
L 85.600448 -123.897455 
L 83.635893 -124.865219 
L 80.901495 -126.202102 
L 79.084761 -127.086461 
L 77.729987 -133.702357 
L 78.140408 -137.584865 
L 84.515317 -138.987941 
L 84.680073 -139.026706 
L 83.638054 -152.208729 
L 87.508172 -156.356488 
L 91.981745 -159.08776 
L 98.46316 -159.655291 
L 103.118339 -155.646251 
L 105.344355 -153.725471 
L 107.565946 -151.80951 
L 111.14707 -148.709117 
L 111.766371 -141.562016 
L 111.873146 -140.316136 
L 115.927506 -134.590551 
L 111.758263 -123.906009 
L 98.042348 -125.183448 
z
" id="m4c6ce70a32" style="stroke:#000000;stroke-opacity:0.5;stroke-width:0.51;" />
                </defs>
                <g clip-path="url(#pc284ee2ed3)">
                    <use style="fill:#ff0000;fill-opacity:0.5;stroke:#000000;stroke-opacity:0.5;stroke-width:0.51;"
                        x="0" xlink:href="#m4c6ce70a32" y="394.92" />
                </g>
            </g>
            <g id="PathCollection_12">
                <defs>
                    <path d="M 103.118339 -155.646251 
L 109.544553 -171.373395 
L 116.31301 -169.446678 
L 116.625513 -169.361435 
L 115.902156 -172.015508 
L 117.606036 -174.785894 
L 118.862995 -176.835114 
L 120.348867 -177.601714 
L 123.153684 -179.039 
L 124.327144 -178.953101 
L 127.206178 -178.751484 
L 129.947237 -178.554117 
L 131.036176 -176.453928 
L 133.403637 -178.806021 
L 141.833335 -187.140189 
L 142.142105 -187.447216 
L 148.48216 -190.590381 
L 153.159395 -191.670052 
L 153.810719 -191.026366 
L 170.481833 -178.227369 
L 171.984967 -175.60865 
L 175.577193 -171.695003 
L 176.407848 -170.318122 
L 172.271323 -154.324607 
L 162.622663 -138.622931 
L 160.314324 -134.912607 
L 158.685878 -132.47325 
L 155.12574 -127.17603 
L 152.664216 -123.529944 
L 141.243068 -126.555996 
L 131.50346 -129.467944 
L 126.95453 -130.972021 
L 123.585881 -132.083981 
L 115.927506 -134.590551 
L 111.873146 -140.316136 
L 111.766371 -141.562016 
L 111.14707 -148.709117 
L 107.565946 -151.80951 
L 105.344355 -153.725471 
z
" id="m223315e2b0" style="stroke:#000000;stroke-opacity:0.5;stroke-width:0.51;" />
                </defs>
                <g clip-path="url(#pc284ee2ed3)">
                    <use style="fill:#ff0000;fill-opacity:0.5;stroke:#000000;stroke-opacity:0.5;stroke-width:0.51;"
                        x="0" xlink:href="#m223315e2b0" y="394.92" />
                </g>
            </g>
            <g id="PathCollection_13">
                <defs>
                    <path d="M 45.396461 -186.620801 
L 46.70317 -188.969747 
L 46.75313 -189.052282 
L 47.098537 -189.67105 
L 47.773989 -190.8927 
L 48.352236 -191.950019 
L 48.614926 -192.38 
L 49.467761 -193.901758 
L 50.145546 -195.118517 
L 50.519229 -195.781137 
L 51.005008 -196.651218 
L 52.553097 -199.389212 
L 56.545779 -206.480756 
L 57.978768 -209.019213 
L 58.371357 -209.713021 
L 59.127794 -211.043132 
L 59.415934 -211.562008 
L 60.65265 -213.558052 
L 64.939626 -210.171569 
L 73.330269 -203.674555 
L 93.553847 -189.551934 
L 109.961281 -201.970242 
L 124.927995 -212.512351 
L 141.081326 -226.352445 
L 144.998302 -229.673361 
L 145.231512 -225.997266 
L 151.817001 -219.640661 
L 158.553666 -206.380073 
L 153.810719 -191.026366 
L 153.159395 -191.670052 
L 148.48216 -190.590381 
L 142.142105 -187.447216 
L 141.833335 -187.140189 
L 133.403637 -178.806021 
L 131.036176 -176.453928 
L 129.947237 -178.554117 
L 127.206178 -178.751484 
L 124.327144 -178.953101 
L 123.153684 -179.039 
L 120.348867 -177.601714 
L 118.862995 -176.835114 
L 117.606036 -174.785894 
L 115.902156 -172.015508 
L 116.625513 -169.361435 
L 116.31301 -169.446678 
L 109.544553 -171.373395 
L 103.118339 -155.646251 
L 98.46316 -159.655291 
L 91.981745 -159.08776 
L 87.508172 -156.356488 
L 83.638054 -152.208729 
L 74.870746 -159.574717 
L 59.608756 -172.656493 
L 58.56725 -173.575126 
L 55.805295 -176.009005 
L 54.803111 -176.891746 
L 45.156627 -186.200782 
z
" id="m1dff82ca09" style="stroke:#000000;stroke-opacity:0.5;stroke-width:0.51;" />
                </defs>
                <g clip-path="url(#pc284ee2ed3)">
                    <use style="fill:#ff0000;fill-opacity:0.5;stroke:#000000;stroke-opacity:0.5;stroke-width:0.51;"
                        x="0" xlink:href="#m1dff82ca09" y="394.92" />
                </g>
            </g>
            <g id="PathCollection_14">
                <defs>
                    <path d="M 16.987187 -71.180422 
L 20.875698 -73.82338 
L 26.279442 -75.02027 
L 40.606104 -78.392322 
L 48.919726 -80.284594 
L 52.029153 -81.047766 
L 55.390879 -81.8699 
L 55.41049 -81.878132 
L 63.895691 -83.935116 
L 78.619586 -87.748593 
L 78.359363 -86.208095 
L 77.832441 -83.137156 
L 77.637962 -81.941871 
L 77.569947 -81.598946 
L 59.042538 -74.307753 
L 35.431297 -68.119215 
L 22.632882 -64.69463 
L 21.694008 -64.444498 
L 21.472593 -64.683451 
L 20.579858 -65.978953 
L 19.971288 -66.861828 
L 18.870086 -68.461845 
L 17.819125 -70.03916 
z
" id="m7e6aa7eb8b" style="stroke:#000000;stroke-opacity:0.5;stroke-width:0.51;" />
                </defs>
                <g clip-path="url(#pc284ee2ed3)">
                    <use style="fill:#ff0000;fill-opacity:0.5;stroke:#000000;stroke-opacity:0.5;stroke-width:0.51;"
                        x="0" xlink:href="#m7e6aa7eb8b" y="394.92" />
                </g>
            </g>
            <g id="PathCollection_15">
                <defs>
                    <path d="M 55.390879 -81.8699 
L 52.029153 -81.047766 
L 48.919726 -80.284594 
L 41.574113 -88.129159 
L 41.060825 -92.869142 
L 41.643965 -93.785739 
L 44.339012 -98.001109 
L 49.188479 -98.790084 
L 52.011451 -99.252226 
L 54.137891 -99.272547 
L 62.481012 -108.671373 
L 64.630176 -107.519893 
L 64.982947 -107.32823 
L 68.175022 -107.724509 
L 69.11665 -107.836553 
L 75.803489 -108.915432 
L 76.715609 -109.064254 
L 78.473362 -109.945158 
L 81.086609 -111.258797 
L 85.905173 -113.671996 
L 87.010251 -104.484768 
L 87.472504 -100.634818 
L 85.011249 -99.183111 
L 83.235116 -96.583583 
L 79.096873 -90.528489 
L 78.619586 -87.748593 
L 63.895691 -83.935116 
L 55.41049 -81.878132 
z
" id="mc7f8558e83" style="stroke:#000000;stroke-opacity:0.5;stroke-width:0.51;" />
                </defs>
                <g clip-path="url(#pc284ee2ed3)">
                    <use style="fill:#ff0000;fill-opacity:0.5;stroke:#000000;stroke-opacity:0.5;stroke-width:0.51;"
                        x="0" xlink:href="#mc7f8558e83" y="394.92" />
                </g>
            </g>
            <g id="PathCollection_16">
                <defs>
                    <path d="M 8.941966 -82.780755 
L 9.336846 -84.500757 
L 9.652935 -85.882255 
L 9.938231 -87.518979 
L 9.949115 -87.860082 
L 9.980477 -88.049957 
L 10.367013 -90.662799 
L 10.492994 -91.470711 
L 10.686863 -92.746451 
L 11.357134 -97.219826 
L 12.40447 -105.856132 
L 12.671374 -107.711346 
L 14.201869 -116.256238 
L 15.244996 -123.252652 
L 15.313331 -123.684904 
L 15.51104 -125.014296 
L 15.832569 -126.478816 
L 16.108575 -127.76 
L 17.487696 -134.633782 
L 18.838279 -140.209323 
L 20.772151 -138.989689 
L 38.492759 -128.019417 
L 44.022387 -130.019992 
L 46.174379 -128.499853 
L 52.415943 -124.075525 
L 55.459014 -121.912211 
L 56.848947 -120.923882 
L 58.528458 -119.726084 
L 59.195763 -119.914571 
L 58.701266 -110.707791 
L 62.481012 -108.671373 
L 54.137891 -99.272547 
L 52.011451 -99.252226 
L 49.188479 -98.790084 
L 44.339012 -98.001109 
L 41.643965 -93.785739 
L 41.060825 -92.869142 
L 41.574113 -88.129159 
L 48.919726 -80.284594 
L 40.606104 -78.392322 
L 26.279442 -75.02027 
L 20.875698 -73.82338 
L 16.987187 -71.180422 
L 16.384156 -72.105745 
L 14.150797 -75.311182 
L 13.39596 -76.399869 
L 13.322462 -76.504014 
L 13.179285 -76.704285 
L 11.916851 -78.523648 
L 11.461737 -79.157603 
L 10.571718 -80.378539 
L 9.605055 -81.823941 
L 9.076042 -82.587723 
z
" id="mb3a3855776" style="stroke:#000000;stroke-opacity:0.5;stroke-width:0.51;" />
                </defs>
                <g clip-path="url(#pc284ee2ed3)">
                    <use style="fill:#ff0000;fill-opacity:0.5;stroke:#000000;stroke-opacity:0.5;stroke-width:0.51;"
                        x="0" xlink:href="#mb3a3855776" y="394.92" />
                </g>
            </g>
            <g id="PathCollection_17">
                <defs>
                    <path d="M 18.838279 -140.209323 
L 20.204334 -146.127847 
L 20.244894 -146.652906 
L 20.387942 -148.1556 
L 22.896549 -158.74392 
L 25.069562 -168.56399 
L 30.506623 -175.925673 
L 30.969932 -176.421887 
L 31.730606 -177.334063 
L 34.59112 -178.675795 
L 36.599219 -179.443633 
L 38.335011 -180.1245 
L 38.582884 -180.198614 
L 40.050793 -180.750748 
L 40.181801 -180.816632 
L 41.797332 -181.428813 
L 42.669904 -181.760712 
L 43.538032 -183.313318 
L 43.721501 -183.633912 
L 45.156627 -186.200782 
L 54.803111 -176.891746 
L 55.805295 -176.009005 
L 58.56725 -173.575126 
L 59.608756 -172.656493 
L 74.870746 -159.574717 
L 83.638054 -152.208729 
L 84.680073 -139.026706 
L 84.515317 -138.987941 
L 78.140408 -137.584865 
L 77.729987 -133.702357 
L 79.084761 -127.086461 
L 80.901495 -126.202102 
L 83.635893 -124.865219 
L 85.600448 -123.897455 
L 85.608102 -123.897758 
L 85.905173 -113.671996 
L 81.086609 -111.258797 
L 78.473362 -109.945158 
L 76.715609 -109.064254 
L 75.803489 -108.915432 
L 69.11665 -107.836553 
L 68.175022 -107.724509 
L 64.982947 -107.32823 
L 64.630176 -107.519893 
L 62.481012 -108.671373 
L 58.701266 -110.707791 
L 59.195763 -119.914571 
L 58.528458 -119.726084 
L 56.848947 -120.923882 
L 55.459014 -121.912211 
L 52.415943 -124.075525 
L 46.174379 -128.499853 
L 44.022387 -130.019992 
L 38.492759 -128.019417 
L 20.772151 -138.989689 
z
" id="mb4ec8a5ef2" style="stroke:#000000;stroke-opacity:0.5;stroke-width:0.51;" />
                </defs>
                <g clip-path="url(#pc284ee2ed3)">
                    <use style="fill:#ff0000;fill-opacity:0.5;stroke:#000000;stroke-opacity:0.5;stroke-width:0.51;"
                        x="0" xlink:href="#mb4ec8a5ef2" y="394.92" />
                </g>
            </g>
            <g id="patch_3">
                <path d="M 194.542929 7.2 
L 194.542929 387.72 
L 7.2 387.72 
L 7.2 7.2 
L 194.542929 7.2 
" style="fill:none;" />
            </g>
        </g>
    </g>
    <defs>
        <clipPath id="pc284ee2ed3">
            <path d="M 194.542929 7.2 
L 194.542929 387.72 
L 7.2 387.72 
L 7.2 7.2 
L 194.542929 7.2 
" />
        </clipPath>
    </defs>
</svg>